<svg width="44" height="38" viewBox="0 0 44 38" fill="none" xmlns="http://www.w3.org/2000/svg">
<path d="M40.1125 11.8844C36.1593 1.24687 23.2218 5.99062 22 11.3094C20.3468 5.63124 7.76872 1.39062 3.88748 11.8844C-0.425025 23.5281 20.4906 33.95 22 35.675C23.5093 34.3094 44.425 23.3125 40.1125 11.8844Z" fill="#E3B5A4"/>
<path d="M42.125 9.29687C41.6937 7.93125 40.975 6.70937 39.9687 5.70312C39.0343 4.69687 37.8125 3.90625 36.5906 3.40312C35.9437 3.11562 35.2968 2.97187 34.65 2.82812C34.2906 2.75625 34.0031 2.75625 33.6437 2.68437H32.6375L33.5 3.11562L34.3625 3.54687C34.9375 3.83437 35.5125 4.12187 36.0156 4.48125C37.0937 5.12812 38.0281 5.91875 38.8906 6.78125C39.7531 7.64375 40.4 8.65 41.0468 9.8C41.3343 10.375 41.6218 10.95 41.8375 11.525C41.9812 11.8125 42.0531 12.1719 42.1968 12.4594L42.5562 13.3937C42.6281 13.0344 42.6281 12.675 42.6281 12.3875C42.6281 12.0281 42.6281 11.6687 42.5562 11.3812C42.4843 10.6625 42.3406 9.94375 42.125 9.29687Z" fill="#E3B5A4"/>
<path d="M43.5626 7.35625C43.4907 6.85313 43.4188 6.35 43.2751 5.84687C42.9876 4.84062 42.4126 3.90625 41.6938 3.11562C40.9751 2.325 40.1126 1.75 39.1782 1.4625C38.6751 1.31875 38.2438 1.175 37.7407 1.10312C37.5251 1.10312 37.2376 1.03125 37.022 1.03125C36.8063 1.03125 36.5188 1.03125 36.3032 1.10312C36.5188 1.24687 36.7345 1.31875 36.9501 1.4625C37.0938 1.53437 37.3095 1.67813 37.5251 1.75C37.9563 1.96562 38.3157 2.18125 38.6751 2.46875C39.3938 2.97187 40.1126 3.54688 40.6876 4.12188C41.2626 4.76875 41.7657 5.4875 42.2688 6.27813C42.4845 6.6375 42.7001 7.06875 42.9157 7.5C42.9876 7.71562 43.1313 7.93125 43.2032 8.14687C43.2751 8.3625 43.4188 8.57812 43.4907 8.86562C43.5626 8.57812 43.5626 8.3625 43.5626 8.075V7.35625Z" fill="#E3B5A4"/>
<path d="M2.09058 11.525C2.3062 10.95 2.5937 10.3031 2.8812 9.8C3.4562 8.65 4.17495 7.64375 5.03745 6.78125C5.89995 5.91875 6.83433 5.12812 7.91245 4.48125C8.41558 4.12187 8.99058 3.83437 9.56558 3.54687L10.4281 3.11562L11.2906 2.68437H10.2843C9.92495 2.68437 9.63745 2.75625 9.27808 2.82812C8.6312 2.97187 7.98433 3.11562 7.33745 3.40312C6.11558 3.90625 4.96558 4.69687 4.0312 5.70312C3.09683 6.70937 2.3062 7.93125 1.87495 9.29687C1.65933 9.94375 1.51558 10.6625 1.4437 11.3094C1.37183 11.6687 1.37183 12.0281 1.37183 12.3156C1.37183 12.675 1.37183 13.0344 1.4437 13.3219L1.80308 12.3875C1.87495 12.1 1.94683 11.8125 2.09058 11.525Z" fill="#E3B5A4"/>
<path d="M3.3125 4.19375C3.8875 3.54687 4.60625 2.97187 5.325 2.46875C5.68438 2.25312 6.11563 1.96562 6.475 1.75C6.69063 1.60625 6.90625 1.53437 7.12188 1.39062C7.3375 1.24687 7.55313 1.175 7.76875 1.03125C7.55313 1.03125 7.26563 0.959373 7.05 0.959373C6.83438 0.959373 6.54688 0.959373 6.33125 1.03125C5.82813 1.10312 5.39688 1.24687 4.89375 1.39062C3.8875 1.82187 3.025 2.39687 2.30625 3.11562C1.5875 3.90625 1.0125 4.84062 0.725 5.84687C0.58125 6.35 0.509375 6.85312 0.4375 7.35625V8.14687C0.4375 8.43437 0.4375 8.65 0.509375 8.9375C0.58125 8.72187 0.725 8.50625 0.796875 8.21875C0.940625 7.93125 1.0125 7.71562 1.15625 7.5C1.37188 7.06875 1.5875 6.6375 1.80313 6.27812C2.23438 5.4875 2.7375 4.76875 3.3125 4.19375Z" fill="#E3B5A4"/>
<path d="M4.6063 25.1094L4.53442 25.2531C4.8938 26.3313 5.4688 27.1937 6.0438 28.0562C6.6188 28.9187 7.33755 29.6375 8.0563 30.2844C8.77505 30.9312 9.56567 31.5781 10.4282 32.1531C11.2907 32.7281 12.225 33.1594 13.3032 33.4469L13.375 33.3031C11.9375 31.8656 10.5 30.5 9.06255 29.1344C7.55317 27.8406 6.11567 26.4031 4.6063 25.1094Z" fill="#E3B5A4"/>
<path d="M1.5875 27.2656L1.51562 27.4094C2.01875 28.6313 2.66562 29.6375 3.38437 30.5719C4.10312 31.5062 4.89375 32.3688 5.75625 33.1594C6.61875 33.95 7.48125 34.6687 8.4875 35.3875C9.49375 36.0344 10.5 36.6812 11.7219 37.0406L11.7937 36.8969C10.1406 35.2438 8.41563 33.6625 6.7625 32.0094C5.0375 30.4281 3.3125 28.775 1.5875 27.2656Z" fill="#E3B5A4"/>
<path d="M36.0155 30.2844C36.7343 29.5656 37.453 28.8469 38.028 28.0562C38.603 27.2656 39.178 26.3313 39.5374 25.2531L39.4655 25.1094C37.9562 26.4031 36.5187 27.8406 35.0093 29.1344C33.5718 30.5 32.1343 31.8656 30.6968 33.3031L30.7687 33.4469C31.8468 33.1594 32.7812 32.6562 33.6437 32.1531C34.5062 31.5781 35.2249 30.9312 36.0155 30.2844Z" fill="#E3B5A4"/>
<path d="M37.2375 32.0094C35.5844 33.6625 33.8594 35.2438 32.2063 36.8969L32.2782 37.0406C33.5 36.6094 34.5063 36.0344 35.5125 35.3875C36.5188 34.7406 37.3813 34.0219 38.2438 33.1594C39.1063 32.3688 39.8969 31.5062 40.6157 30.5719C41.3344 29.6375 41.9813 28.6313 42.4844 27.4094L42.4125 27.2656C40.6875 28.775 38.9625 30.4281 37.2375 32.0094Z" fill="#E3B5A4"/>
</svg>
